# Blender 4.0.2
# www.blender.org
mtllib fence1.mtl
o fence
v 0.186418 -0.000540 -0.072444
v 0.175567 1.496383 -0.082670
v 0.266155 1.504842 0.143250
v 0.072447 0.000540 0.234230
v 0.087917 1.503595 0.233965
v -0.002672 1.495136 0.008045
v 0.258864 0.000000 0.161786
v 0.000000 0.000000 0.000000
v 0.905761 0.976586 1.787146
v 0.904058 1.176499 1.781497
v 0.712986 1.177014 1.855212
v 0.055368 1.123674 0.163390
v 0.056992 0.923761 0.169061
v 0.714611 0.977101 1.860883
v 0.225038 0.923245 0.104487
v 0.223336 1.123158 0.098838
v 0.919477 0.400775 1.793149
v 0.255612 0.612406 0.101567
v 0.917827 0.600770 1.794148
v 0.728926 0.601286 1.863293
v 0.727959 0.401291 1.862293
v 0.071201 0.612922 0.170712
v 0.070232 0.412927 0.169712
v 0.254713 0.412411 0.100568
v 1.699887 1.015573 3.796476
v 1.686472 1.214999 3.803503
v 1.522479 1.001208 3.865462
v 1.509064 1.200633 3.872489
v 1.693429 0.464799 3.800454
v 1.693737 0.664798 3.799754
v 1.515174 0.465316 3.869726
v 1.515482 0.665314 3.869027
v 1.438018 0.010000 3.663745
v 1.440569 1.455370 3.658565
v 1.696882 0.010000 3.814362
v 1.513014 1.455910 3.881625
v 1.626362 1.471519 3.586314
v 1.698808 1.472059 3.809375
v 1.510465 0.010541 3.886806
v 1.624435 0.009460 3.591300
v 0.970079 1.421808 1.929397
v 0.786454 1.433867 2.007728
v 0.782400 0.010540 2.013310
v 0.709954 0.010000 1.826893
v 0.713134 1.483065 1.828274
v 0.896760 1.471005 1.749943
v 0.968818 0.010000 1.940866
v 0.896372 0.009460 1.754449
v 0.960478 0.568343 1.916595
v 1.439938 0.651653 3.680315
v 1.427801 0.455421 3.698892
v 0.767925 0.408664 2.002172
v 1.605640 0.418869 3.631890
v 0.946139 0.372111 1.935171
v 0.780437 0.604896 1.983596
v 1.628089 0.615100 3.613313
v 0.963975 0.990025 1.925950
v 1.440387 1.190540 3.687504
v 0.964478 1.190024 1.925755
v 0.776623 1.190540 1.994899
v 1.437469 0.990541 3.687700
v 1.621743 0.990025 3.618555
v 0.776118 0.990541 1.995095
v 1.622247 1.190024 3.618359
vn -0.4084 -0.0025 -0.9128
vn -0.3622 0.0044 -0.9321
vn -0.4535 -0.0094 -0.8912
vn 0.9426 -0.0021 -0.3339
vn 0.9553 0.0049 -0.2955
vn 0.9282 -0.0091 -0.3719
vn 0.4084 0.0026 0.9128
vn 0.3622 0.0097 0.9320
vn 0.4536 -0.0045 0.8912
vn -0.9426 0.0032 0.3339
vn -0.9553 0.0099 0.2955
vn -0.9281 -0.0037 0.3723
vn -0.0216 0.9994 -0.0287
vn -0.0018 -1.0000 0.0029
vn 0.9270 -0.0027 -0.3750
vn -0.0082 0.9996 -0.0284
vn -0.0079 0.9996 -0.0285
vn -0.9321 0.0027 0.3622
vn 0.0082 -0.9996 0.0283
vn 0.0079 -0.9996 0.0285
vn -0.3586 -0.0294 -0.9330
vn -0.3587 -0.0294 -0.9330
vn 0.3598 0.0294 0.9326
vn 0.3599 0.0294 0.9325
vn 0.9310 0.0035 -0.3649
vn 0.9308 0.0095 -0.3655
vn 0.9313 -0.0024 -0.3644
vn 0.0046 1.0000 0.0051
vn 0.0047 1.0000 0.0051
vn -0.0045 -1.0000 -0.0051
vn -0.0047 -1.0000 -0.0050
vn -0.3509 0.0063 -0.9364
vn -0.3511 0.0064 -0.9363
vn 0.3416 -0.0042 0.9398
vn 0.3396 -0.0063 0.9406
vn 0.3416 -0.0041 0.9398
vn 0.3437 -0.0019 0.9391
vn 0.3417 -0.0041 0.9398
vn -0.3630 0.0084 -0.9318
vn -0.3622 -0.0027 -0.9321
vn 0.9511 -0.0023 -0.3089
vn 0.3622 0.0027 0.9321
vn -0.9511 0.0028 0.3089
vn -0.0778 0.9967 0.0228
vn -0.0017 -1.0000 0.0030
vn -0.3774 -0.0005 -0.9261
vn -0.3622 0.0017 -0.9321
vn -0.3925 -0.0027 -0.9197
vn -0.3773 -0.0005 -0.9261
vn 0.9289 -0.0026 -0.3704
vn 0.9321 -0.0014 -0.3622
vn 0.9253 -0.0039 -0.3791
vn 0.3775 0.0049 0.9260
vn 0.3622 0.0072 0.9321
vn 0.3925 0.0025 0.9197
vn -0.9289 0.0029 0.3704
vn -0.9321 0.0041 0.3622
vn -0.9256 0.0016 0.3786
vn 0.1504 0.9674 0.2037
vn -0.0015 -1.0000 0.0035
vn 0.9256 -0.1207 -0.3587
vn 0.9243 -0.1394 -0.3554
vn 0.9267 -0.1020 -0.3618
vn 0.1621 0.9826 -0.0905
vn 0.1591 0.9832 -0.0897
vn 0.1654 0.9820 -0.0913
vn 0.1622 0.9826 -0.0905
vn -0.9289 0.0923 0.3586
vn -0.9290 0.0914 0.3586
vn -0.9289 0.0922 0.3586
vn -0.9288 0.0932 0.3587
vn -0.9289 0.0927 0.3586
vn -0.1671 -0.9816 0.0920
vn -0.1668 -0.9817 0.0919
vn -0.3610 -0.0634 -0.9304
vn -0.3623 -0.0616 -0.9300
vn -0.3596 -0.0652 -0.9308
vn -0.3609 -0.0635 -0.9304
vn -0.3609 -0.0635 -0.9305
vn 0.3533 0.0573 0.9338
vn 0.3636 0.0655 0.9293
vn 0.3436 0.0495 0.9378
vn 0.3533 0.0573 0.9337
vn 0.9321 -0.0027 -0.3622
vn 0.0025 1.0000 -0.0010
vn 0.0024 1.0000 -0.0009
vn -0.9312 0.0083 0.3645
vn -0.9309 0.0139 0.3651
vn -0.9314 0.0027 0.3639
vn -0.0024 -1.0000 0.0010
vn -0.0024 -1.0000 0.0009
vn -0.3454 -0.0000 -0.9384
vn -0.3454 -0.0000 -0.9385
vn 0.3534 -0.0021 0.9355
vn 0.3513 -0.0042 0.9363
vn 0.3554 -0.0000 0.9347
vn 0.3533 -0.0021 0.9355
vt 0.243701 0.000000
vt 0.443701 0.000000
vt 0.453146 1.495130
vt 0.254156 1.496827
vt 0.499587 -0.000000
vt 0.699587 -0.000000
vt 0.709005 1.496968
vt 0.510158 1.504805
vt 0.860416 0.000000
vt 1.060416 0.000000
vt 1.069861 1.504945
vt 0.870871 1.502965
vt 0.389922 -0.000000
vt 0.589922 -0.000000
vt 0.599340 1.503105
vt 0.400492 1.494991
vt 0.198997 0.219000
vt 0.000000 0.198997
vt 0.020003 0.000000
vt 0.219000 0.020003
vt 0.000000 0.000000
vt 0.200000 0.000000
vt 0.200000 0.200000
vt 0.000000 0.200000
vt 0.328997 0.000000
vt 0.528997 0.000000
vt 0.528997 1.815921
vt 0.328997 1.815921
vt 0.560512 0.000000
vt 0.751403 0.000000
vt 0.751403 1.815921
vt 0.560512 1.815921
vt 0.865139 0.000000
vt 1.065139 0.000000
vt 1.065139 1.815921
vt 0.865139 1.815921
vt 0.109665 0.000000
vt 0.300555 0.000000
vt 0.300555 1.815921
vt 0.109665 1.815921
vt 0.200000 0.190890
vt 0.000000 0.190890
vt 0.200000 0.000000
vt 0.200000 0.190890
vt 0.000000 0.190890
vt 0.670178 0.000000
vt 0.870178 0.000000
vt 0.870178 1.815921
vt 0.670178 1.815921
vt 0.194961 0.000000
vt 0.385851 0.000000
vt 0.385851 1.815921
vt 0.194961 1.815921
vt 0.085296 0.000000
vt 0.285296 0.000000
vt 0.285295 1.815921
vt 0.085296 1.815921
vt 0.353366 0.000000
vt 0.544257 0.000000
vt 0.544257 1.815921
vt 0.353366 1.815921
vt 0.480256 0.190890
vt 0.280256 0.190890
vt 0.280256 0.000000
vt 0.480256 0.000000
vt 0.842152 0.190890
vt 0.642152 0.190890
vt 0.642152 -0.000000
vt 0.842152 -0.000000
vt 0.200000 0.191243
vt 0.000000 0.191243
vt 0.272915 0.000000
vt 0.472915 0.000000
vt 0.472566 1.445381
vt 0.273264 1.462069
vt 0.765922 0.000000
vt 0.965922 0.000000
vt 0.965922 1.462069
vt 0.765922 1.462069
vt 0.396167 0.000000
vt 0.596167 0.000000
vt 0.595818 1.462069
vt 0.396515 1.445381
vt 0.554633 0.000000
vt 0.754633 0.000000
vt 0.754633 1.445381
vt 0.554633 1.445381
vt 0.791673 0.049865
vt 0.949917 -0.072442
vt 1.072224 0.085802
vt 0.913980 0.208109
vt 0.308130 0.000000
vt 0.508130 0.000000
vt 0.508130 0.200000
vt 0.308130 0.200000
vt 0.268071 0.000000
vt 0.468071 0.000000
vt 0.469588 1.473068
vt 0.270026 1.461537
vt 0.694548 -0.000000
vt 0.894548 -0.000000
vt 0.894659 1.461552
vt 0.700967 1.411836
vt 0.645808 -0.000000
vt 0.845808 -0.000000
vt 0.847325 1.411854
vt 0.647763 1.423327
vt 0.463032 -0.000000
vt 0.663032 -0.000000
vt 0.663143 1.423343
vt 0.469451 1.473051
vt 0.199887 0.474696
vt 0.000000 0.467958
vt 0.006738 0.268071
vt 0.206625 0.274809
vt 0.000000 0.560512
vt 0.200000 0.560512
vt 0.200000 0.760512
vt 0.000000 0.760512
vt 0.597068 0.000000
vt 0.797068 0.000000
vt 0.797068 1.820984
vt 0.597068 1.820984
vt 0.438662 -0.000000
vt 0.629552 -0.000000
vt 0.629552 1.820984
vt 0.438662 1.820984
vt 0.194961 -0.000000
vt 0.394961 -0.000000
vt 0.394961 1.820984
vt 0.194961 1.820984
vt 0.389922 0.000000
vt 0.580812 0.000000
vt 0.580812 1.820984
vt 0.389922 1.820984
vt 0.463955 -0.591169
vt 0.663955 -0.591169
vt 0.663955 1.224752
vt 0.463955 1.224752
vt 0.763281 0.284360
vt 0.954171 0.284360
vt 0.954171 2.100280
vt 0.763281 2.100280
vt 0.217011 -0.987776
vt 0.417011 -0.987776
vt 0.417011 0.828145
vt 0.217011 0.828145
vt 0.576202 0.097281
vt 0.767093 0.097281
vt 0.767092 1.913202
vt 0.576202 1.913202
vt 0.985730 0.190890
vt 0.785730 0.190890
vt 0.785730 0.000000
vt 0.985730 0.000000
vt 0.381641 0.471438
vt 0.581641 0.471438
vt 0.581641 0.662328
vt 0.381641 0.662328
s 0
usemtl WoodLog_Plank.001
f 1/1/1 8/2/2 6/3/1
f 2/4/3 1/1/1 6/3/1
f 7/5/4 1/6/5 2/7/4
f 3/8/6 7/5/4 2/7/4
f 4/9/7 7/10/8 3/11/7
f 5/12/9 4/9/7 3/11/7
f 8/13/10 4/14/11 5/15/10
f 6/16/12 8/13/10 5/15/10
f 2/17/13 6/18/13 5/19/13
f 3/20/13 2/17/13 5/19/13
f 7/21/14 4/22/14 8/23/14
f 1/24/14 7/21/14 8/23/14
f 10/25/15 9/26/15 15/27/15
f 16/28/15 10/25/15 15/27/15
f 11/29/16 10/30/16 16/31/16
f 12/32/17 11/29/17 16/31/17
f 14/33/18 11/34/18 12/35/18
f 13/36/18 14/33/18 12/35/18
f 9/37/19 14/38/19 13/39/19
f 15/40/20 9/37/20 13/39/20
f 16/41/21 15/42/21 13/21/21
f 12/43/22 16/41/22 13/21/22
f 11/21/23 14/22/23 9/44/23
f 10/45/24 11/21/24 9/44/24
f 19/46/25 17/47/26 24/48/25
f 18/49/27 19/46/25 24/48/25
f 20/50/28 19/51/28 18/52/28
f 22/53/29 20/50/29 18/52/29
f 21/54/18 20/55/18 22/56/18
f 23/57/18 21/54/18 22/56/18
f 17/58/30 21/59/30 23/60/30
f 24/61/31 17/58/31 23/60/31
f 18/62/32 24/63/32 23/64/32
f 22/65/33 18/62/33 23/64/33
f 20/21/34 21/22/35 17/44/36
f 19/45/37 20/21/38 17/44/38
f 26/66/39 25/67/39 27/68/39
f 28/69/39 26/66/39 27/68/39
f 30/70/40 29/71/40 31/21/40
f 32/43/40 30/70/40 31/21/40
f 40/72/40 33/73/40 34/74/40
f 37/75/40 40/72/40 34/74/40
f 35/76/41 40/77/41 37/78/41
f 38/79/41 35/76/41 37/78/41
f 39/80/42 35/81/42 38/82/42
f 36/83/42 39/80/42 38/82/42
f 33/84/43 39/85/43 36/86/43
f 34/87/43 33/84/43 36/86/43
f 37/88/44 34/89/44 36/90/44
f 38/91/44 37/88/44 36/90/44
f 35/92/45 39/93/45 33/94/45
f 40/95/45 35/92/45 33/94/45
f 48/96/46 44/97/47 45/98/46
f 46/99/48 48/96/49 45/98/49
f 47/100/50 48/101/51 46/102/50
f 41/103/52 47/100/50 46/102/50
f 43/104/53 47/105/54 41/106/53
f 42/107/55 43/104/53 41/106/53
f 44/108/56 43/109/57 42/110/56
f 45/111/58 44/108/56 42/110/56
f 46/112/59 45/113/59 42/114/59
f 41/115/59 46/112/59 42/114/59
f 47/116/60 43/117/60 44/118/60
f 48/119/60 47/116/60 44/118/60
f 56/120/61 53/121/62 54/122/61
f 49/123/63 56/120/61 54/122/61
f 50/124/64 56/125/65 49/126/64
f 55/127/66 50/124/67 49/126/67
f 51/128/68 50/129/69 55/130/70
f 52/131/71 51/128/72 55/130/68
f 53/132/73 51/133/73 52/134/73
f 54/135/74 53/132/74 52/134/74
f 49/41/75 54/42/76 52/21/75
f 55/43/77 49/41/78 52/21/79
f 50/21/80 51/22/81 53/44/80
f 56/45/82 50/21/83 53/44/83
f 64/136/84 62/137/84 57/138/84
f 59/139/84 64/136/84 57/138/84
f 58/140/85 64/141/85 59/142/85
f 60/143/86 58/140/86 59/142/86
f 61/144/87 58/145/88 60/146/87
f 63/147/89 61/144/87 60/146/87
f 62/148/90 61/149/90 63/150/90
f 57/151/91 62/148/91 63/150/91
f 59/152/92 57/153/92 63/154/92
f 60/155/93 59/152/93 63/154/93
f 58/156/94 61/157/95 62/158/94
f 64/159/96 58/156/97 62/158/97
